<svg width="909" height="823" viewBox="0 0 909 823" fill="none" xmlns="http://www.w3.org/2000/svg">
<g clip-path="url(#clip0_710_119)">
<g filter="url(#filter0_d_710_119)">
<rect x="383" y="317" width="143" height="143" rx="30" fill="white"/>
<rect x="381.5" y="315.5" width="146" height="146" rx="31.5" stroke="#E8EBF0" stroke-width="3"/>
</g>
<rect x="415" y="348" width="80" height="80" rx="20" fill="#272727"/>
<path d="M443.314 409H433.428L448.491 365.364H460.381L475.423 409H465.537L454.607 375.335H454.266L443.314 409ZM442.696 391.848H466.048V399.05H442.696V391.848Z" fill="white"/>
<g filter="url(#filter1_d_710_119)">
<rect x="750" y="497" width="143" height="143" rx="30" fill="white"/>
<rect x="748.5" y="495.5" width="146" height="146" rx="31.5" stroke="#E8EBF0" stroke-width="3"/>
</g>
<g clip-path="url(#clip1_710_119)">
<path fill-rule="evenodd" clip-rule="evenodd" d="M812.746 533C808.864 533.003 805.723 536.182 805.725 540.099C805.723 544.015 808.867 547.194 812.749 547.197H819.772V540.101C819.775 536.185 816.63 533.006 812.746 533C812.749 533 812.749 533 812.746 533ZM812.746 551.933H794.023C790.141 551.936 786.997 555.115 787 559.032C786.994 562.949 790.139 566.128 794.02 566.133H812.746C816.627 566.13 819.772 562.952 819.769 559.035C819.772 555.115 816.627 551.936 812.746 551.933Z" fill="#36C5F0"/>
<path fill-rule="evenodd" clip-rule="evenodd" d="M857.22 559.032C857.223 555.115 854.079 551.936 850.197 551.933C846.315 551.936 843.171 555.115 843.174 559.032V566.133H850.197C854.079 566.13 857.223 562.952 857.22 559.032ZM838.495 559.032V540.099C838.497 536.185 835.356 533.006 831.474 533C827.593 533.003 824.448 536.182 824.451 540.099V559.032C824.445 562.949 827.59 566.128 831.471 566.133C835.353 566.13 838.497 562.952 838.495 559.032Z" fill="#2EB67D"/>
<path fill-rule="evenodd" clip-rule="evenodd" d="M831.47 604C835.352 603.997 838.496 600.818 838.494 596.901C838.496 592.985 835.352 589.806 831.47 589.803H824.447V596.901C824.444 600.815 827.589 603.994 831.47 604ZM831.47 585.064H850.196C854.078 585.061 857.222 581.882 857.219 577.965C857.225 574.048 854.08 570.87 850.199 570.864H831.473C827.592 570.867 824.447 574.045 824.45 577.962C824.447 581.882 827.589 585.061 831.47 585.064Z" fill="#ECB22E"/>
<path fill-rule="evenodd" clip-rule="evenodd" d="M787 577.965C786.997 581.882 790.141 585.061 794.023 585.064C797.905 585.061 801.049 581.882 801.046 577.965V570.867H794.023C790.141 570.87 786.997 574.048 787 577.965ZM805.725 577.965V596.899C805.72 600.816 808.864 603.994 812.746 604C816.627 603.997 819.772 600.818 819.769 596.901V577.971C819.775 574.054 816.63 570.875 812.749 570.87C808.864 570.87 805.723 574.048 805.725 577.965Z" fill="#E01E5A"/>
</g>
<g filter="url(#filter2_d_710_119)">
<rect x="16" y="500" width="143" height="143" rx="30" fill="white"/>
<rect x="14.5" y="498.5" width="146" height="146" rx="31.5" stroke="#E8EBF0" stroke-width="3"/>
</g>
<g filter="url(#filter3_d_710_119)">
<rect x="383" y="631" width="143" height="143" rx="30" fill="white"/>
<rect x="381.5" y="629.5" width="146" height="146" rx="31.5" stroke="#E8EBF0" stroke-width="3"/>
</g>
<g filter="url(#filter4_d_710_119)">
<rect x="16" y="134" width="143" height="143" rx="30" fill="white"/>
<rect x="14.5" y="132.5" width="146" height="146" rx="31.5" stroke="#E8EBF0" stroke-width="3"/>
</g>
<g filter="url(#filter5_d_710_119)">
<rect x="383" y="3" width="143" height="143" rx="30" fill="white"/>
<rect x="381.5" y="1.5" width="146" height="146" rx="31.5" stroke="#E8EBF0" stroke-width="3"/>
</g>
<g filter="url(#filter6_d_710_119)">
<rect x="750" y="134" width="143" height="143" rx="30" fill="white"/>
<rect x="748.5" y="132.5" width="146" height="146" rx="31.5" stroke="#E8EBF0" stroke-width="3"/>
</g>
<path d="M527.5 394C525 394 523 396 523 398.5C523 401 525 403 527.5 403C530 403 532 401 532 398.5C532 396 530 394 527.5 394Z" fill="white"/>
<path d="M532 398.5C532 396 530 394 527.5 394C525 394 523 396 523 398.5C523 401 525 403 527.5 403C530 403 532 401 532 398.5ZM532 398.5H801.5C812.546 398.5 821.5 407.454 821.5 418.5V497" stroke="#DBE1EA" stroke-width="3" stroke-dasharray="0"/>
<path d="M454.5 311C452 311 450 313 450 315.5C450 318 452 320 454.5 320C457 320 459 318 459 315.5C459 313 457 311 454.5 311Z" fill="white"/>
<path d="M454.5 311C452 311 450 313 450 315.5C450 318 452 320 454.5 320C457 320 459 318 459 315.5C459 313 457 311 454.5 311ZM454.5 311V146" stroke="#DBE1EA" stroke-width="3" stroke-dasharray="0"/>
<path d="M454.5 457C452 457 450 459 450 461.5C450 464 452 466 454.5 466C457 466 459 464 459 461.5C459 459 457 457 454.5 457Z" fill="white"/>
<path d="M454.5 466C457 466 459 464 459 461.5C459 459 457 457 454.5 457C452 457 450 459 450 461.5C450 464 452 466 454.5 466ZM454.5 466V631" stroke="#DBE1EA" stroke-width="3" stroke-dasharray="0"/>
<path d="M381.5 394C379 394 377 396 377 398.5C377 401 379 403 381.5 403C384 403 386 401 386 398.5C386 396 384 394 381.5 394Z" fill="white"/>
<path d="M377 398.5C377 396 379 394 381.5 394C384 394 386 396 386 398.5C386 401 384 403 381.5 403C379 403 377 401 377 398.5ZM377 398.5H107.5C96.4543 398.5 87.5 407.454 87.5 418.5V500" stroke="#DBE1EA" stroke-width="3" stroke-dasharray="0"/>
<path d="M381.5 374C379 374 377 376 377 378.5C377 381 379 383 381.5 383C384 383 386 381 386 378.5C386 376 384 374 381.5 374Z" fill="white"/>
<path d="M377 378.5C377 376 379 374 381.5 374C384 374 386 376 386 378.5C386 381 384 383 381.5 383C379 383 377 381 377 378.5ZM377 378.5H107.5C96.4543 378.5 87.5 369.546 87.5 358.5V277" stroke="#DBE1EA" stroke-width="3" stroke-dasharray="0"/>
<path d="M527.5 374C525 374 523 376 523 378.5C523 381 525 383 527.5 383C530 383 532 381 532 378.5C532 376 530 374 527.5 374Z" fill="white"/>
<path d="M532 378.5C532 376 530 374 527.5 374C525 374 523 376 523 378.5C523 381 525 383 527.5 383C530 383 532 381 532 378.5ZM532 378.5H801.5C812.546 378.5 821.5 369.546 821.5 358.5V277" stroke="#DBE1EA" stroke-width="3" stroke-dasharray="0"/>
<g clip-path="url(#clip2_710_119)">
<path fill-rule="evenodd" clip-rule="evenodd" d="M87.9992 534C68.4167 534 53.2402 548.33 53.2402 567.683C53.2402 577.807 57.3945 586.554 64.1575 592.598C64.7241 593.108 65.0666 593.813 65.0946 594.575L65.2835 600.751C65.3464 602.721 67.3816 604 69.1861 603.21L76.0819 600.171C76.6653 599.913 77.3198 599.864 77.9353 600.032C81.1034 600.905 84.4814 601.366 87.9992 601.366C107.582 601.366 122.758 587.036 122.758 567.683C122.758 548.33 107.582 534 87.9992 534Z" fill="url(#paint0_linear_710_119)"/>
<path fill-rule="evenodd" clip-rule="evenodd" d="M67.1302 577.534L77.341 561.353C78.9636 558.782 82.4464 558.139 84.8802 559.963L92.9999 566.048C93.3627 566.319 93.8036 566.465 94.2565 566.464C94.7093 566.463 95.1495 566.314 95.5107 566.041L106.477 557.727C107.939 556.616 109.855 558.37 108.869 559.921L98.6649 576.095C97.0424 578.666 93.5595 579.309 91.1257 577.485L83.006 571.4C82.6433 571.129 82.2023 570.983 81.7495 570.984C81.2966 570.985 80.8564 571.134 80.4952 571.407L69.522 579.728C68.0604 580.839 66.1439 579.085 67.1302 577.534Z" fill="white"/>
</g>
<g clip-path="url(#clip3_710_119)">
<path d="M114.185 178.69C114.13 178.291 113.781 178.069 113.492 178.045C113.203 178.021 107.099 177.568 107.099 177.568C107.099 177.568 102.859 173.356 102.393 172.889C101.928 172.423 101.018 172.565 100.666 172.669C100.614 172.684 99.7392 172.954 98.2929 173.402C96.8766 169.324 94.3771 165.575 89.9798 165.575C89.8584 165.575 89.7335 165.58 89.6085 165.587C88.3579 163.932 86.8088 163.213 85.4707 163.213C75.2274 163.213 70.3337 176.029 68.7993 182.541C64.819 183.776 61.9914 184.653 61.6302 184.767C59.4085 185.464 59.3382 185.534 59.0465 187.629C58.8269 189.216 53.0137 234.209 53.0137 234.209L98.3117 242.703L122.856 237.389C122.856 237.389 114.24 179.09 114.185 178.69ZM95.7892 174.177L91.9563 175.365C91.9577 175.094 91.959 174.828 91.959 174.537C91.959 172.002 91.6074 169.961 91.0434 168.343C93.3091 168.628 94.8181 171.208 95.7892 174.177ZM88.2327 168.846C88.8627 170.426 89.2722 172.693 89.2722 175.752C89.2722 175.909 89.2709 176.052 89.2695 176.196C86.7768 176.969 84.0681 177.808 81.3535 178.65C82.8777 172.762 85.7349 169.919 88.2327 168.846ZM85.1894 165.963C85.6315 165.963 86.0769 166.113 86.5031 166.407C83.2203 167.953 79.7015 171.847 78.2155 179.622L71.9583 181.562C73.6988 175.631 77.8319 165.963 85.1894 165.963Z" fill="#95BF46"/>
<path d="M113.492 178.045C113.204 178.021 107.099 177.568 107.099 177.568C107.099 177.568 102.859 173.356 102.394 172.889C102.22 172.716 101.985 172.627 101.739 172.589L98.3145 242.702L122.856 237.389C122.856 237.389 114.24 179.09 114.186 178.69C114.131 178.291 113.781 178.069 113.492 178.045Z" fill="#5E8E3E"/>
<path d="M89.9797 191.618L86.9533 200.627C86.9533 200.627 84.3018 199.211 81.0515 199.211C76.2865 199.211 76.0467 202.204 76.0467 202.958C76.0467 207.073 86.7644 208.65 86.7644 218.288C86.7644 225.871 81.9586 230.754 75.4788 230.754C67.703 230.754 63.7266 225.911 63.7266 225.911L65.8086 219.026C65.8086 219.026 69.8961 222.538 73.3451 222.538C75.5989 222.538 76.5156 220.762 76.5156 219.465C76.5156 214.097 67.7227 213.858 67.7227 205.038C67.7227 197.615 73.0466 190.431 83.7932 190.431C87.934 190.431 89.9797 191.618 89.9797 191.618Z" fill="white"/>
</g>
<g clip-path="url(#clip4_710_119)">
<path d="M463.75 75.0153C463.751 77.5393 463.296 80.0427 462.406 82.4047C460.043 83.2944 457.539 83.7504 455.014 83.7508H454.985C452.385 83.7475 449.894 83.2723 447.595 82.4058C446.705 80.0436 446.249 77.5398 446.25 75.0153V74.9847C446.249 72.4612 446.704 69.9582 447.593 67.5964C449.955 66.705 452.46 66.2489 454.985 66.25H455.014C457.539 66.2488 460.044 66.7049 462.406 67.5961C463.296 69.9577 463.751 72.4608 463.75 74.9844V75.015L463.75 75.0153ZM489.514 69.1668H469.084L483.529 54.7202C482.395 53.1275 481.131 51.6322 479.748 50.2498V50.2487C478.365 48.8678 476.871 47.6042 475.279 46.4709L460.832 60.9174V40.4873C458.911 40.164 456.966 40.0011 455.017 40L454.981 40C453 40.0011 451.058 40.1695 449.167 40.4873V60.9174L434.72 46.4709C433.128 47.6039 431.634 48.8684 430.253 50.2512L430.245 50.2566C428.865 51.6373 427.602 53.1303 426.47 54.7202L440.917 69.1668H420.487C420.487 69.1668 420 73.0039 420 74.988V75.012C420 76.9961 420.168 78.9405 420.487 80.8332H440.917L426.47 95.2798C428.743 98.4691 431.531 101.257 434.72 103.53L449.167 89.0826V109.514C451.086 109.835 453.029 109.998 454.975 110H455.024C456.97 109.998 458.913 109.836 460.832 109.514V89.0826L475.28 103.53C476.871 102.397 478.366 101.133 479.748 99.7513L479.751 99.748C481.132 98.3656 482.396 96.871 483.529 95.2798L469.081 80.8332H489.514C489.832 78.9438 489.998 77.0051 490 75.0254V74.9746C489.998 72.9949 489.832 71.0562 489.514 69.1668Z" fill="#FF4A00"/>
</g>
<g clip-path="url(#clip5_710_119)">
<path d="M849.667 211.486C849.66 212.1 849.411 212.687 848.974 213.119C848.538 213.552 847.948 213.794 847.333 213.794C846.719 213.794 846.129 213.552 845.692 213.119C845.255 212.687 845.007 212.1 845 211.486V190.5C845.007 189.886 845.255 189.298 845.692 188.866C846.129 188.434 846.719 188.192 847.333 188.192C847.948 188.192 848.538 188.434 848.974 188.866C849.411 189.298 849.66 189.886 849.667 190.5V211.486ZM848.852 226.091C848.492 226.4 839.848 233.653 824 233.653C808.152 233.653 799.509 226.399 799.148 226.091C798.678 225.688 798.388 225.115 798.34 224.498C798.293 223.881 798.492 223.27 798.895 222.8C799.297 222.331 799.868 222.041 800.484 221.992C801.1 221.944 801.71 222.142 802.18 222.543C802.317 222.658 810.036 228.986 824 228.986C838.14 228.986 845.739 222.612 845.815 222.548C846.791 221.709 848.267 221.822 849.105 222.801C849.508 223.27 849.707 223.881 849.66 224.498C849.613 225.115 849.322 225.688 848.852 226.091ZM798.333 190.5C798.34 189.886 798.589 189.298 799.026 188.866C799.462 188.434 800.052 188.192 800.667 188.192C801.281 188.192 801.871 188.434 802.308 188.866C802.745 189.298 802.993 189.886 803 190.5V211.486C802.993 212.1 802.745 212.687 802.308 213.119C801.871 213.552 801.281 213.794 800.667 213.794C800.052 213.794 799.462 213.552 799.026 213.119C798.589 212.687 798.34 212.1 798.333 211.486V190.5ZM810 185.833C810.01 185.221 810.26 184.636 810.696 184.206C811.133 183.776 811.721 183.535 812.334 183.535C812.946 183.535 813.534 183.776 813.971 184.206C814.407 184.636 814.657 185.221 814.667 185.833V217.005C814.657 217.618 814.407 218.202 813.971 218.632C813.534 219.062 812.946 219.303 812.334 219.303C811.721 219.303 811.133 219.062 810.696 218.632C810.26 218.202 810.01 217.618 810 217.005V185.833ZM821.667 184.653C821.667 184.346 821.727 184.043 821.844 183.76C821.962 183.477 822.133 183.219 822.35 183.003C822.567 182.786 822.824 182.614 823.107 182.497C823.39 182.38 823.694 182.319 824 182.319C824.306 182.319 824.61 182.38 824.893 182.497C825.176 182.614 825.433 182.786 825.65 183.003C825.867 183.219 826.039 183.476 826.156 183.76C826.273 184.043 826.334 184.346 826.334 184.653V218.486C826.327 219.1 826.078 219.687 825.641 220.119C825.204 220.552 824.615 220.794 824 220.794C823.386 220.794 822.796 220.552 822.359 220.119C821.922 219.687 821.673 219.1 821.667 218.486V184.653ZM833.334 185.833C833.343 185.221 833.593 184.636 834.029 184.206C834.466 183.776 835.054 183.535 835.667 183.535C836.279 183.535 836.868 183.776 837.304 184.206C837.741 184.636 837.991 185.221 838 185.833V217.005C837.991 217.618 837.741 218.202 837.304 218.632C836.868 219.062 836.279 219.303 835.667 219.303C835.054 219.303 834.466 219.062 834.029 218.632C833.593 218.202 833.343 217.618 833.334 217.005V185.833ZM850.25 173H797.75C792.918 173 789 176.918 789 181.75V234.25C789 239.082 792.918 243 797.75 243H850.25C855.082 243 859 239.082 859 234.25V181.75C859 176.918 855.082 173 850.25 173Z" fill="#1F8DED"/>
</g>
<path d="M486.645 673.931C497.012 689.173 502.132 706.366 500.218 726.159C500.21 726.243 500.166 726.319 500.098 726.37C492.247 732.135 484.641 735.633 477.141 737.953C477.083 737.971 477.02 737.97 476.963 737.95C476.905 737.931 476.855 737.894 476.819 737.844C475.086 735.433 473.512 732.892 472.133 730.223C472.054 730.066 472.126 729.876 472.289 729.815C474.789 728.872 477.167 727.743 479.453 726.407C479.634 726.301 479.645 726.043 479.479 725.919C478.993 725.559 478.513 725.18 478.052 724.801C477.966 724.731 477.85 724.718 477.753 724.765C462.907 731.621 446.643 731.621 431.621 724.765C431.524 724.721 431.408 724.736 431.324 724.805C430.865 725.184 430.383 725.559 429.902 725.919C429.736 726.043 429.75 726.301 429.931 726.407C432.218 727.718 434.595 728.872 437.092 729.819C437.254 729.881 437.331 730.066 437.25 730.223C435.901 732.895 434.327 735.437 432.562 737.848C432.485 737.945 432.359 737.99 432.24 737.953C424.776 735.633 417.17 732.135 409.319 726.37C409.254 726.319 409.207 726.239 409.2 726.155C407.6 709.035 410.86 691.7 422.76 673.928C422.789 673.881 422.832 673.844 422.883 673.822C428.738 671.135 435.011 669.158 441.567 668.029C441.686 668.01 441.806 668.065 441.868 668.171C442.678 669.605 443.604 671.445 444.23 672.948C451.141 671.892 458.16 671.892 465.215 672.948C465.842 671.477 466.735 669.605 467.542 668.171C467.571 668.119 467.615 668.077 467.669 668.051C467.723 668.026 467.784 668.018 467.843 668.029C474.402 669.161 480.675 671.138 486.526 673.822C486.578 673.844 486.62 673.881 486.645 673.931ZM447.744 706.483C447.816 701.422 444.126 697.234 439.494 697.234C434.899 697.234 431.245 701.385 431.245 706.483C431.245 711.58 434.972 715.731 439.494 715.731C444.089 715.731 447.744 711.58 447.744 706.483ZM478.244 706.483C478.316 701.422 474.626 697.234 469.995 697.234C465.4 697.234 461.745 701.385 461.745 706.483C461.745 711.58 465.472 715.731 469.995 715.731C474.626 715.731 478.244 711.58 478.244 706.483Z" fill="#5865F2"/>
</g>
<defs>
<filter id="filter0_d_710_119" x="349" y="314" width="211" height="213" filterUnits="userSpaceOnUse" color-interpolation-filters="sRGB">
<feFlood flood-opacity="0" result="BackgroundImageFix"/>
<feColorMatrix in="SourceAlpha" type="matrix" values="0 0 0 0 0 0 0 0 0 0 0 0 0 0 0 0 0 0 127 0" result="hardAlpha"/>
<feMorphology radius="17" operator="erode" in="SourceAlpha" result="effect1_dropShadow_710_119"/>
<feOffset dy="33"/>
<feGaussianBlur stdDeviation="24"/>
<feComposite in2="hardAlpha" operator="out"/>
<feColorMatrix type="matrix" values="0 0 0 0 0.208056 0 0 0 0 0.3115 0 0 0 0 0.466667 0 0 0 0.14 0"/>
<feBlend mode="normal" in2="BackgroundImageFix" result="effect1_dropShadow_710_119"/>
<feBlend mode="normal" in="SourceGraphic" in2="effect1_dropShadow_710_119" result="shape"/>
</filter>
<filter id="filter1_d_710_119" x="734" y="494" width="175" height="195" filterUnits="userSpaceOnUse" color-interpolation-filters="sRGB">
<feFlood flood-opacity="0" result="BackgroundImageFix"/>
<feColorMatrix in="SourceAlpha" type="matrix" values="0 0 0 0 0 0 0 0 0 0 0 0 0 0 0 0 0 0 127 0" result="hardAlpha"/>
<feMorphology radius="27" operator="erode" in="SourceAlpha" result="effect1_dropShadow_710_119"/>
<feOffset dy="33"/>
<feGaussianBlur stdDeviation="20"/>
<feComposite in2="hardAlpha" operator="out"/>
<feColorMatrix type="matrix" values="0 0 0 0 0.208056 0 0 0 0 0.3115 0 0 0 0 0.466667 0 0 0 0.14 0"/>
<feBlend mode="normal" in2="BackgroundImageFix" result="effect1_dropShadow_710_119"/>
<feBlend mode="normal" in="SourceGraphic" in2="effect1_dropShadow_710_119" result="shape"/>
</filter>
<filter id="filter2_d_710_119" x="0" y="497" width="175" height="195" filterUnits="userSpaceOnUse" color-interpolation-filters="sRGB">
<feFlood flood-opacity="0" result="BackgroundImageFix"/>
<feColorMatrix in="SourceAlpha" type="matrix" values="0 0 0 0 0 0 0 0 0 0 0 0 0 0 0 0 0 0 127 0" result="hardAlpha"/>
<feMorphology radius="27" operator="erode" in="SourceAlpha" result="effect1_dropShadow_710_119"/>
<feOffset dy="33"/>
<feGaussianBlur stdDeviation="20"/>
<feComposite in2="hardAlpha" operator="out"/>
<feColorMatrix type="matrix" values="0 0 0 0 0.208056 0 0 0 0 0.3115 0 0 0 0 0.466667 0 0 0 0.14 0"/>
<feBlend mode="normal" in2="BackgroundImageFix" result="effect1_dropShadow_710_119"/>
<feBlend mode="normal" in="SourceGraphic" in2="effect1_dropShadow_710_119" result="shape"/>
</filter>
<filter id="filter3_d_710_119" x="367" y="628" width="175" height="195" filterUnits="userSpaceOnUse" color-interpolation-filters="sRGB">
<feFlood flood-opacity="0" result="BackgroundImageFix"/>
<feColorMatrix in="SourceAlpha" type="matrix" values="0 0 0 0 0 0 0 0 0 0 0 0 0 0 0 0 0 0 127 0" result="hardAlpha"/>
<feMorphology radius="27" operator="erode" in="SourceAlpha" result="effect1_dropShadow_710_119"/>
<feOffset dy="33"/>
<feGaussianBlur stdDeviation="20"/>
<feComposite in2="hardAlpha" operator="out"/>
<feColorMatrix type="matrix" values="0 0 0 0 0.208056 0 0 0 0 0.3115 0 0 0 0 0.466667 0 0 0 0.14 0"/>
<feBlend mode="normal" in2="BackgroundImageFix" result="effect1_dropShadow_710_119"/>
<feBlend mode="normal" in="SourceGraphic" in2="effect1_dropShadow_710_119" result="shape"/>
</filter>
<filter id="filter4_d_710_119" x="0" y="131" width="175" height="195" filterUnits="userSpaceOnUse" color-interpolation-filters="sRGB">
<feFlood flood-opacity="0" result="BackgroundImageFix"/>
<feColorMatrix in="SourceAlpha" type="matrix" values="0 0 0 0 0 0 0 0 0 0 0 0 0 0 0 0 0 0 127 0" result="hardAlpha"/>
<feMorphology radius="27" operator="erode" in="SourceAlpha" result="effect1_dropShadow_710_119"/>
<feOffset dy="33"/>
<feGaussianBlur stdDeviation="20"/>
<feComposite in2="hardAlpha" operator="out"/>
<feColorMatrix type="matrix" values="0 0 0 0 0.208056 0 0 0 0 0.3115 0 0 0 0 0.466667 0 0 0 0.14 0"/>
<feBlend mode="normal" in2="BackgroundImageFix" result="effect1_dropShadow_710_119"/>
<feBlend mode="normal" in="SourceGraphic" in2="effect1_dropShadow_710_119" result="shape"/>
</filter>
<filter id="filter5_d_710_119" x="367" y="0" width="175" height="195" filterUnits="userSpaceOnUse" color-interpolation-filters="sRGB">
<feFlood flood-opacity="0" result="BackgroundImageFix"/>
<feColorMatrix in="SourceAlpha" type="matrix" values="0 0 0 0 0 0 0 0 0 0 0 0 0 0 0 0 0 0 127 0" result="hardAlpha"/>
<feMorphology radius="27" operator="erode" in="SourceAlpha" result="effect1_dropShadow_710_119"/>
<feOffset dy="33"/>
<feGaussianBlur stdDeviation="20"/>
<feComposite in2="hardAlpha" operator="out"/>
<feColorMatrix type="matrix" values="0 0 0 0 0.208056 0 0 0 0 0.3115 0 0 0 0 0.466667 0 0 0 0.14 0"/>
<feBlend mode="normal" in2="BackgroundImageFix" result="effect1_dropShadow_710_119"/>
<feBlend mode="normal" in="SourceGraphic" in2="effect1_dropShadow_710_119" result="shape"/>
</filter>
<filter id="filter6_d_710_119" x="734" y="131" width="175" height="195" filterUnits="userSpaceOnUse" color-interpolation-filters="sRGB">
<feFlood flood-opacity="0" result="BackgroundImageFix"/>
<feColorMatrix in="SourceAlpha" type="matrix" values="0 0 0 0 0 0 0 0 0 0 0 0 0 0 0 0 0 0 127 0" result="hardAlpha"/>
<feMorphology radius="27" operator="erode" in="SourceAlpha" result="effect1_dropShadow_710_119"/>
<feOffset dy="33"/>
<feGaussianBlur stdDeviation="20"/>
<feComposite in2="hardAlpha" operator="out"/>
<feColorMatrix type="matrix" values="0 0 0 0 0.208056 0 0 0 0 0.3115 0 0 0 0 0.466667 0 0 0 0.14 0"/>
<feBlend mode="normal" in2="BackgroundImageFix" result="effect1_dropShadow_710_119"/>
<feBlend mode="normal" in="SourceGraphic" in2="effect1_dropShadow_710_119" result="shape"/>
</filter>
<linearGradient id="paint0_linear_710_119" x1="13956.8" y1="534" x2="13956.8" y2="28505.8" gradientUnits="userSpaceOnUse">
<stop stop-color="#00B2FF"/>
<stop offset="1" stop-color="#006AFF"/>
</linearGradient>
<clipPath id="clip0_710_119">
<rect width="909" height="823" fill="white"/>
</clipPath>
<clipPath id="clip1_710_119">
<rect width="70.2198" height="71" fill="white" transform="translate(787 533)"/>
</clipPath>
<clipPath id="clip2_710_119">
<rect width="70" height="70" fill="white" transform="translate(53 534)"/>
</clipPath>
<clipPath id="clip3_710_119">
<rect width="70" height="79.9007" fill="white" transform="translate(53 163)"/>
</clipPath>
<clipPath id="clip4_710_119">
<rect width="70" height="70" fill="white" transform="translate(420 40)"/>
</clipPath>
<clipPath id="clip5_710_119">
<rect width="70" height="70" fill="white" transform="translate(789 173)"/>
</clipPath>
</defs>
</svg>
